<svg xmlns="http://www.w3.org/2000/svg" width="19.711" height="20.479"><path data-name="Icon material-language" d="M9.846 0A10.048 10.048 0 000 10.239a10.048 10.048 0 009.846 10.239 10.058 10.058 0 009.865-10.239A10.058 10.058 0 009.846 0zm6.83 6.144h-2.908a16.4 16.4 0 00-1.36-3.644 7.989 7.989 0 014.267 3.644zm-6.82-4.055a14.67 14.67 0 011.882 4.055H7.973a14.67 14.67 0 011.882-4.055zm-7.628 10.2a8.311 8.311 0 010-4.1h3.33a17.559 17.559 0 00-.138 2.048 17.559 17.559 0 00.138 2.048zm.808 2.048h2.907A16.4 16.4 0 007.3 17.98a7.947 7.947 0 01-4.265-3.645zm2.907-8.193H3.035A7.947 7.947 0 017.3 2.5a16.4 16.4 0 00-1.357 3.644zM9.855 18.39a14.67 14.67 0 01-1.882-4.055h3.765a14.67 14.67 0 01-1.883 4.055zm2.306-6.1H7.549a15.639 15.639 0 01-.158-2.048 15.5 15.5 0 01.158-2.048h4.612a15.5 15.5 0 01.158 2.048 15.639 15.639 0 01-.157 2.045zm.246 5.693a16.4 16.4 0 001.36-3.645h2.907a7.989 7.989 0 01-4.267 3.645zm1.744-5.693a17.559 17.559 0 00.138-2.048 17.559 17.559 0 00-.138-2.048h3.331a8.311 8.311 0 010 4.1z" fill="#f4cf1b"/></svg>